HIERARCHY
ROOT Hips
{
	OFFSET 0.000000 0.000000 0.000000
	CHANNELS 6 Xposition Yposition Zposition Zrotation Yrotation Xrotation 
	JOINT LHipJoint
	{
		OFFSET 0.000000 0.000000 0.000000
		CHANNELS 3 Zrotation Yrotation Xrotation
		JOINT LeftUpLeg
		{
			OFFSET 1.363060 -1.794630 0.839290
			CHANNELS 3 Zrotation Yrotation Xrotation
			JOINT LeftLeg
			{
				OFFSET 2.448110 -6.726130 0.000000
				CHANNELS 3 Zrotation Yrotation Xrotation
				JOINT LeftFoot
				{
					OFFSET 2.562200 -7.039590 0.000000
					CHANNELS 3 Zrotation Yrotation Xrotation
					JOINT LeftToeBase
					{
						OFFSET 0.157640 -0.433110 2.322550
						CHANNELS 3 Zrotation Yrotation Xrotation
						End Site
						{
							OFFSET 0.000000 0.000000 0.000000
						}
					}
				}
			}
		}
	}
	JOINT RHipJoint
	{
		OFFSET 0.000000 0.000000 0.000000
		CHANNELS 3 Zrotation Yrotation Xrotation
		JOINT RightUpLeg
		{
			OFFSET -1.305520 -1.794630 0.839290
			CHANNELS 3 Zrotation Yrotation Xrotation
			JOINT RightLeg
			{
				OFFSET -2.542530 -6.985550 0.000000
				CHANNELS 3 Zrotation Yrotation Xrotation
				JOINT RightFoot
				{
					OFFSET -2.568260 -7.056230 0.000000
					CHANNELS 3 Zrotation Yrotation Xrotation
					JOINT RightToeBase
					{
						OFFSET -0.164730 -0.452590 2.363150
						CHANNELS 3 Zrotation Yrotation Xrotation
						End Site
						{
							OFFSET 0.000000 0.000000 0.000000
						}
					}
				}
			}
		}
	}
	JOINT LowerBack
	{
		OFFSET 0.000000 0.000000 0.000000
		CHANNELS 3 Zrotation Yrotation Xrotation
		JOINT Spine
		{
			OFFSET 0.028270 2.035590 -0.193380
			CHANNELS 3 Zrotation Yrotation Xrotation
			JOINT Spine1
			{
				OFFSET 0.056720 2.048850 -0.042750
				CHANNELS 3 Zrotation Yrotation Xrotation
				JOINT Neck
				{
					OFFSET 0.000000 0.000000 0.000000
					CHANNELS 3 Zrotation Yrotation Xrotation
					JOINT Neck1
					{
						OFFSET -0.054170 1.746240 0.172020
						CHANNELS 3 Zrotation Yrotation Xrotation
						JOINT Head
						{
							OFFSET 0.104070 1.761360 -0.123970
							CHANNELS 3 Zrotation Yrotation Xrotation
							End Site
							{
								OFFSET 0.000000 0.000000 0.000000
							}
						}
					}
				}
				JOINT LeftShoulder
				{
					OFFSET 0.000000 0.000000 0.000000
					CHANNELS 3 Zrotation Yrotation Xrotation
					JOINT LeftArm
					{
						OFFSET 3.362410 1.200890 -0.311210
						CHANNELS 3 Zrotation Yrotation Xrotation
						JOINT LeftForeArm
						{
							OFFSET 4.983000 -0.000000 -0.000000
							CHANNELS 3 Zrotation Yrotation Xrotation
							JOINT LeftHand
							{
								OFFSET 3.483560 -0.000000 -0.000000
								CHANNELS 3 Zrotation Yrotation Xrotation
								JOINT LeftFingerBase
								{
									OFFSET 0.000000 0.000000 0.000000
									CHANNELS 3 Zrotation Yrotation Xrotation
									JOINT LeftHandIndex1
									{
										OFFSET 0.715260 -0.000000 -0.000000
										CHANNELS 3 Zrotation Yrotation Xrotation
										End Site
										{
											OFFSET 0.000000 0.000000 0.000000
										}
									}
								}
								JOINT LThumb
								{
									OFFSET 0.000000 0.000000 0.000000
									CHANNELS 3 Zrotation Yrotation Xrotation
									End Site
									{
										OFFSET 0.000000 0.000000 0.000000
									}
								}
							}
						}
					}
				}
				JOINT RightShoulder
				{
					OFFSET 0.000000 0.000000 0.000000
					CHANNELS 3 Zrotation Yrotation Xrotation
					JOINT RightArm
					{
						OFFSET -3.136600 1.374050 -0.404650
						CHANNELS 3 Zrotation Yrotation Xrotation
						JOINT RightForeArm
						{
							OFFSET -5.241900 -0.000000 -0.000000
							CHANNELS 3 Zrotation Yrotation Xrotation
							JOINT RightHand
							{
								OFFSET -3.444170 -0.000000 -0.000000
								CHANNELS 3 Zrotation Yrotation Xrotation
								JOINT RightFingerBase
								{
									OFFSET 0.000000 0.000000 0.000000
									CHANNELS 3 Zrotation Yrotation Xrotation
									JOINT RightHandIndex1
									{
										OFFSET -0.622530 -0.000000 -0.000000
										CHANNELS 3 Zrotation Yrotation Xrotation
										End Site
										{
											OFFSET 0.000000 0.000000 0.000000
										}
									}
								}
								JOINT RThumb
								{
									OFFSET 0.000000 0.000000 0.000000
									CHANNELS 3 Zrotation Yrotation Xrotation
									End Site
									{
										OFFSET 0.000000 0.000000 0.000000
									}
								}
							}
						}
					}
				}
			}
		}
	}
}
MOTION
Frames: 7
Frame Time: 0.008333
26.711017 18.156517 -6.590708 177.108589 31.584791 -167.161704 -7.823838 -2.130236 2.401735 -7.357053 -3.567822 5.822601 -0.190928 6.054580 13.773156 -0.015938 12.653935 24.383624 5.060300 13.451400 41.082600 6.393018 2.938467 -1.027671 12.034271 -0.261582 -21.855464 -0.395835 -8.396689 20.715214 2.111039 -10.841520 -0.058323 -0.029900 1.117100 -3.071200 0.385415 -2.070391 0.605489 1.313233 -3.066024 -1.197584 2.754036 -1.496637 8.592710 -2.302675 -0.054888 -6.119714 4.074451 -1.079051 -8.062629 -0.811600 -1.078500 -1.625500 0.481956 -7.339587 3.809094 73.115280 -48.633873 -87.605247 18.323627 -35.597429 -7.283904 -2.331194 -2.405732 16.380449 46.355491 42.726514 38.286000 -7.125000 0.000000 0.000000 44.154600 85.211100 40.714800 3.696559 6.224216 3.104900 -62.586398 40.128611 -59.778628 -12.484037 30.024329 -4.553562 2.013995 -1.799742 19.792395 -24.478661 28.877758 -14.003800 7.125000 0.000000 0.000000 2.244600 2.251300 2.332800 
26.707725 18.157175 -6.592574 177.105141 31.545921 -167.035639 -7.829622 -2.119081 2.423837 -7.298992 -3.519341 5.839717 -0.225914 5.912487 13.397463 0.051828 12.486312 24.541563 5.021100 13.407500 40.913600 6.399823 2.931244 -1.047393 11.961836 0.004266 -21.838371 -0.383273 -8.369001 20.630288 2.188654 -11.131971 -0.037289 -0.023900 0.998000 -2.743200 0.368600 -2.208403 0.633730 1.332154 -3.252350 -1.218456 2.837770 -1.599687 8.588032 -2.995082 -0.088674 -6.527786 4.779819 -0.964932 -9.005189 -0.433800 -1.028300 -1.771900 0.512137 -7.350224 3.754678 72.711057 -48.382862 -87.023052 18.400632 -35.484828 -7.200249 -2.017498 -2.285075 16.614881 40.217796 37.721398 29.879100 -7.125000 0.000000 0.000000 12.891600 78.410200 10.065700 3.681975 6.193286 3.088357 -63.018871 40.212191 -59.774061 -12.467131 30.039151 -4.535285 1.996233 -1.832041 20.019367 -24.286287 29.165704 -14.020700 7.125000 0.000000 0.000000 2.409100 2.534300 2.515500 
26.705311 18.160577 -6.596524 177.158222 31.468634 -166.888373 -7.824898 -2.098044 2.444717 -7.210551 -3.659413 5.955945 -0.264815 5.767499 13.000854 0.079525 12.390166 24.565849 5.001000 13.384900 40.826900 6.419199 2.921772 -1.064176 11.904086 0.364029 -21.770560 -0.370467 -8.346360 20.561802 2.239220 -11.306257 -0.119909 0.000000 0.018400 -0.050600 0.477829 -2.184757 0.615123 1.288916 -3.219880 -1.237246 2.558942 -1.559405 8.519909 -2.641824 0.138865 -7.011973 4.395856 -0.640178 -9.171109 -0.637200 -0.869900 -1.738200 0.544243 -7.339516 3.734586 73.453543 -48.380189 -87.911191 18.190749 -35.396907 -7.083493 -1.983643 -2.304844 16.773265 39.764643 37.667807 29.440000 -7.125000 0.000000 0.000000 11.591500 78.224600 9.001800 3.692812 6.222841 3.072085 -62.596680 40.083713 -58.986077 -12.508359 30.028205 -4.552676 1.955154 -1.867014 20.240639 -24.104887 29.374657 -14.005100 7.125000 0.000000 0.000000 2.568700 2.750900 2.691700 
26.703445 18.163320 -6.602011 177.299523 31.374450 -166.680489 -7.820137 -2.077623 2.471438 -7.000658 -3.639827 5.970044 -0.293739 5.640798 12.666850 0.118066 12.260529 24.623932 4.978800 13.359800 40.730800 6.425641 2.917312 -1.076652 12.002470 0.515216 -21.796238 -0.360091 -8.322246 20.490918 2.301373 -11.541443 -0.113447 -0.005000 0.456600 -1.254700 0.687251 -2.401381 0.638520 1.335886 -3.513331 -1.276621 2.614874 -1.710615 8.472333 -3.213248 0.183835 -7.456396 4.559483 -0.429494 -10.068096 -0.443000 -0.752000 -1.890500 0.573421 -7.342796 3.656105 73.108424 -48.159119 -88.108401 17.811704 -35.117164 -7.039818 -2.491995 -2.453045 17.283501 48.268481 44.553183 41.133000 -7.125000 0.000000 0.000000 76.919000 86.647000 73.626100 3.702101 6.196812 3.079105 -63.112902 40.324056 -58.764267 -12.685604 30.280413 -4.650875 1.914682 -1.876074 20.559763 -23.838148 29.642549 -13.946100 7.125000 0.000000 0.000000 2.785500 2.976400 2.929800 
26.704653 18.159480 -6.604535 177.476739 31.283819 -166.479774 -7.809303 -2.067566 2.496367 -6.723403 -3.376806 5.870009 -0.309136 5.536557 12.414046 0.187497 12.074287 24.795883 4.988700 13.371100 40.773900 6.424876 2.923738 -1.078844 12.211060 0.411146 -21.914802 -0.350073 -8.291927 20.417981 2.261672 -11.389416 -0.137852 -0.000100 0.051900 -0.142600 0.777643 -2.564507 0.665214 1.404082 -3.738096 -1.336330 2.781167 -1.837759 8.358651 -3.126582 0.261039 -7.865132 3.984763 -0.289817 -10.626382 -0.624200 -0.673700 -1.998600 0.605406 -7.341188 3.640688 72.987240 -48.079598 -88.536018 17.523988 -34.786868 -6.836896 -2.401518 -2.371101 18.010685 45.743386 42.609731 37.648900 -7.125000 0.000000 0.000000 39.351800 85.060500 36.112900 3.743830 6.176246 3.075524 -63.366433 40.539091 -57.900033 -12.959704 30.588723 -4.793895 1.863352 -1.875662 20.763157 -23.503437 29.903664 -13.834900 7.125000 0.000000 0.000000 3.049100 3.180700 3.218000 
26.705421 18.157395 -6.607168 177.733017 31.140354 -166.271761 -7.795700 -2.061029 2.510475 -6.394728 -3.192174 5.741632 -0.311214 5.490865 12.319919 0.251210 11.912298 24.974876 4.978000 13.359000 40.727700 6.423255 2.928003 -1.073252 12.498903 0.233711 -22.006748 -0.335035 -8.244381 20.287022 2.225998 -11.281122 -0.012282 -0.004700 0.442000 -1.214600 0.854097 -2.633004 0.642308 1.500743 -3.840741 -1.385555 3.032082 -1.909338 8.288166 -3.627298 0.133011 -8.268634 4.702252 -0.322692 -10.748924 -0.319400 -0.686200 -1.911400 0.630958 -7.334936 3.615166 73.088578 -48.110607 -88.840002 17.210171 -34.535493 -6.691011 -2.502270 -2.403833 18.242512 47.334196 43.724314 39.806900 -7.125000 0.000000 0.000000 59.102300 86.183000 55.766100 3.773423 6.173061 3.047180 -63.422299 40.636088 -57.309416 -13.105161 30.718237 -4.860718 1.842374 -1.871505 20.752080 -23.363304 30.007985 -13.784300 7.125000 0.000000 0.000000 3.160100 3.261200 3.339700 
26.702787 18.161784 -6.615288 177.798502 30.948361 -166.179533 -7.792140 -2.053810 2.517408 -6.277113 -3.298871 5.722085 -0.314816 5.481174 12.288646 0.207871 12.013593 24.879909 5.018900 13.405000 40.904100 6.426803 2.927214 -1.042639 12.604269 -0.066141 -22.104016 -0.314902 -8.188049 20.128099 2.166011 -11.065098 0.053228 -0.000200 -0.089400 0.245600 0.976409 -2.670770 0.674592 1.516992 -3.901935 -1.483292 2.983827 -1.930555 8.046921 -4.212278 0.296812 -8.315276 5.072833 0.009858 -11.283938 -0.077500 -0.506400 -2.031400 0.618532 -7.354010 3.618638 73.529741 -48.380768 -89.389909 16.873728 -34.298848 -6.511796 -2.562647 -2.407896 18.622395 48.618635 44.374785 41.429600 -7.125000 0.000000 0.000000 78.688800 86.474000 75.204100 3.765809 6.177296 3.041189 -63.372175 40.732579 -57.806750 -12.968762 30.556165 -4.775430 1.901213 -1.841207 20.178369 -23.636337 29.765919 -13.856300 7.125000 0.000000 0.000000 2.938900 3.045700 3.094900 
